<svg xmlns="http://www.w3.org/2000/svg" width="20.31" height="20.31" viewBox="0 0 20.31 20.31">
  <g id="ic_settings_24px" transform="translate(-2.271 -2)">
    <path id="Path_448" data-name="Path 448" d="M20.185,13.15a7.7,7.7,0,0,0,.073-1,7.7,7.7,0,0,0-.073-1l2.2-1.676a.5.5,0,0,0,.125-.65L20.425,5.321a.532.532,0,0,0-.637-.223l-2.6,1.016a7.682,7.682,0,0,0-1.764-1l-.4-2.691A.5.5,0,0,0,14.516,2H10.34a.5.5,0,0,0-.512.427l-.4,2.691a8.078,8.078,0,0,0-1.764,1L5.068,5.1a.516.516,0,0,0-.637.223L2.343,8.834a.492.492,0,0,0,.125.65l2.2,1.676a7.837,7.837,0,0,0-.073,1,7.837,7.837,0,0,0,.073,1l-2.2,1.676a.5.5,0,0,0-.125.65l2.088,3.514a.532.532,0,0,0,.637.223l2.6-1.015a7.682,7.682,0,0,0,1.764,1l.4,2.691a.5.5,0,0,0,.512.427h4.176a.5.5,0,0,0,.512-.427l.4-2.691a8.078,8.078,0,0,0,1.764-1l2.6,1.015a.516.516,0,0,0,.637-.223l2.088-3.514a.5.5,0,0,0-.125-.65Zm-7.757,2.559a3.556,3.556,0,1,1,3.654-3.554A3.609,3.609,0,0,1,12.428,15.709Z" fill="#fff"/>
  </g>
</svg>
