<svg xmlns="http://www.w3.org/2000/svg" width="20.31" height="20.31" viewBox="0 0 20.31 20.31">
  <defs>
    <style>
      .cls-1 {
        opacity: 0.3;
      }

      .cls-2 {
        fill: #fff;
      }
    </style>
  </defs>
  <g id="ic_notifications_active_48px" class="cls-1" transform="translate(-4.05 -5)">
    <path id="Path_447" data-name="Path 447" class="cls-2" d="M9.705,6.646,8.249,5.156a10.971,10.971,0,0,0-4.2,8.176H6.086A8.883,8.883,0,0,1,9.705,6.646Zm12.619,6.687H24.36a10.971,10.971,0,0,0-4.2-8.176L18.71,6.64A8.913,8.913,0,0,1,22.324,13.332Zm-2.011.521c0-3.2-1.665-5.874-4.581-6.583V6.562a1.527,1.527,0,1,0-3.054,0v.708C9.761,7.979,8.1,10.65,8.1,13.853v5.208L6.061,21.144v1.042H22.349V21.144l-2.036-2.083ZM14.2,25.31a2.13,2.13,0,0,0,.412-.042,2.067,2.067,0,0,0,1.466-1.229,2.136,2.136,0,0,0,.158-.812H12.169A2.059,2.059,0,0,0,14.2,25.31Z"/>
  </g>
</svg>
